# xmcd CD database file
#
# Track frame offsets:
#	183
#	12193
#	21448
#	30175
#	42380
#	55803
#	71305
#	83760
#	95378
#	112103
#	125313
#	135410
#	144805
#	154688
#	167135
#	178505
#	193615
#	204005
#	215928
#	229618
#	241120
#	254753
#	269028
#	279990
#	291143
#
# Disc length: 4017 seconds
#
# Revision: 3
# Processed by: cddbd v1.5.2PL0 Copyright (c) Steve Scherf et al.
# Submitted via: CDex 1.51
#
DISCID=5b0faf19
DTITLE=Various Artist - Country Legends
DYEAR=1995
DGENRE=Country
TTITLE0=Roger Miller - Little Green Apples
TTITLE1=The Kendalls - Blue, Blue Day
TTITLE2=Jim Reeves - Waiting For A Train
TTITLE3=Billie Jo Spears - You Never Can Tell
TTITLE4=Johnny Russel - Catfish John
TTITLE5=Jo Anne Houston - Always On My Mind
TTITLE6=Johnny Paycheck - Take This Job And Shove It
TTITLE7=Patsy Cline - In Care Of The Blues
TTITLE8=Johnny Cash - City Of New Orleans
TTITLE9=Lynn Anderson - Rose Garden
TTITLE10=Porter Wagoner - Green Green Grass Of Home
TTITLE11=Jeanie C Riley - The Girl Most Likely
TTITLE12=Hank Locklin - Please Help Me I'm Falling
TTITLE13=Thr Kendalls - Pick Me Up On Your Way Down
TTITLE14=George Jones - Talk Back Trembling Lips
TTITLE15=Lynn Anderson - Desperado
TTITLE16=Don Gibson - Lonesome Number One
TTITLE17=Anne Murray - The Last Thing On My Mind
TTITLE18=Willie Nelson - A Moment Isn't Very Long
TTITLE19=Dolly Parton - Letter To Heaven
TTITLE20=Jimmy Dean - Big Bad John
TTITLE21=Jo Anne Houston - Loving Him Was Easier
TTITLE22=Carl Perkins - Memphis Tennessee
TTITLE23=Skeeter Davis - My Last Date With You
TTITLE24=Ferlin Husky - Six Days On The Road
EXTD=YEAR: 1995
EXTT0=
EXTT1=
EXTT2=
EXTT3=
EXTT4=
EXTT5=
EXTT6=
EXTT7=
EXTT8=
EXTT9=
EXTT10=
EXTT11=
EXTT12=
EXTT13=
EXTT14=
EXTT15=
EXTT16=
EXTT17=
EXTT18=
EXTT19=
EXTT20=
EXTT21=
EXTT22=
EXTT23=
EXTT24=
PLAYORDER=
